<svg width="144" height="28" viewBox="0 0 144 28" fill="none" xmlns="http://www.w3.org/2000/svg">
<path d="M17.3598 27.77C16.1495 27.77 15.0234 27.5644 13.986 27.1484C12.9486 26.7324 12.0467 26.1402 11.285 25.3767C10.5234 24.6083 9.9299 23.7077 9.5 22.6751C9.07476 21.6424 8.85981 20.5069 8.85981 19.2687C8.85981 18.0304 9.07476 16.8949 9.5 15.8623C9.92523 14.8296 10.5234 13.929 11.2944 13.1606C12.0654 12.3922 12.9673 11.8 14.0093 11.3889C15.0467 10.9729 16.1729 10.7673 17.3832 10.7673C18.743 10.7673 19.9766 11.0121 21.0841 11.5064C22.1916 12.0007 23.1168 12.725 23.8645 13.6794L21.5093 15.9357C20.986 15.2945 20.3925 14.81 19.7243 14.4772C19.0607 14.1493 18.3364 13.9829 17.5607 13.9829C16.8271 13.9829 16.1542 14.1101 15.5421 14.3695C14.9299 14.6289 14.3972 14.9911 13.9486 15.4609C13.5 15.9308 13.1542 16.4887 12.9065 17.1299C12.6589 17.771 12.5374 18.4856 12.5374 19.2687C12.5374 20.0517 12.6589 20.7663 12.9065 21.4074C13.1542 22.0486 13.5 22.6065 13.9486 23.0764C14.3972 23.5462 14.9299 23.9084 15.5421 24.1678C16.1542 24.4272 16.8271 24.5545 17.5607 24.5545C18.3364 24.5545 19.0607 24.388 19.7243 24.0503C20.3878 23.7126 20.986 23.2232 21.5093 22.5821L23.8645 24.8383C23.1168 25.7927 22.1916 26.5219 21.0841 27.0212C19.9766 27.5204 18.7383 27.77 17.3598 27.77Z" fill="white"/>
<path d="M47.1075 27.4861V11.0414H50.7617V24.3832H58.5888V27.4861H47.1075Z" fill="white"/>
<path d="M68.3037 27.77C66.0748 27.77 64.3318 27.119 63.0794 25.8221C61.8224 24.5202 61.1963 22.6604 61.1963 20.2328V11.0414H64.8505V20.1349C64.8505 21.6864 65.1589 22.8072 65.771 23.5071C66.3832 24.2021 67.2383 24.5545 68.3271 24.5545C69.4346 24.5545 70.2944 24.207 70.9065 23.5071C71.5187 22.8121 71.8271 21.6864 71.8271 20.1349V11.0414H75.3925V20.2279C75.3925 22.6555 74.7663 24.5202 73.5093 25.8172C72.2523 27.119 70.5187 27.77 68.3037 27.77Z" fill="white"/>
<path d="M94.528 11.0414L88.771 21.2508L82.8878 11.0414H79.8832V27.4861H83.271V17.7906L87.8925 25.7242H89.5047L94.1308 17.678L94.1729 27.4861H97.5561V11.0414H94.528Z" fill="white"/>
<path d="M115.93 20.5803C115.495 19.9245 114.902 19.4204 114.145 19.0778C114.009 19.0142 113.864 18.9652 113.72 18.9163C114.332 18.5786 114.822 18.1332 115.187 17.5655C115.589 16.9292 115.794 16.1853 115.794 15.3239C115.794 14.0416 115.299 13.004 114.304 12.2209C113.308 11.4379 111.827 11.0463 109.85 11.0463H102.178V27.491H110.299C112.364 27.491 113.925 27.0946 114.986 26.3066C116.047 25.5137 116.579 24.4174 116.579 23.0079C116.584 22.0486 116.364 21.241 115.93 20.5803ZM109.407 13.9095C110.29 13.9095 110.967 14.0661 111.435 14.3793C111.907 14.6925 112.14 15.1771 112.14 15.8378C112.14 16.4936 111.907 16.983 111.435 17.3061C110.963 17.6291 110.285 17.7857 109.407 17.7857H105.794V13.9095H109.407ZM112.187 24.1287C111.692 24.4566 110.981 24.623 110.056 24.623H105.794V20.5558H110.056C110.981 20.5558 111.692 20.7223 112.187 21.0502C112.682 21.3781 112.925 21.8969 112.925 22.6016C112.925 23.2917 112.678 23.8007 112.187 24.1287Z" fill="white"/>
<path d="M120.22 27.4861V11.0414H123.874V27.4861H120.22Z" fill="white"/>
<path d="M140.187 27.4861H144L136.958 11.0414H133.369L126.393 27.4861H130.117L131.514 23.9622H138.785L140.187 27.4861ZM132.659 21.0746L135.15 14.8051L137.64 21.0746H132.659Z" fill="white"/>
<path d="M4.1028 25.0341C4.1028 24.4957 4.01869 24.0308 3.85514 23.649C3.69159 23.2673 3.45327 22.9736 3.14953 22.768C2.84579 22.5625 2.47664 22.4597 2.0514 22.4597C1.62617 22.4597 1.25701 22.5625 0.948598 22.768C0.640187 22.9736 0.406542 23.2673 0.242991 23.649C0.0794392 24.0308 0 24.4957 0 25.0341V27.4372H5.88785V26.5562H4.1028V25.0341ZM1.07477 23.7812C1.30374 23.4924 1.63084 23.3456 2.0514 23.3456C2.47196 23.3456 2.79907 23.4924 3.02804 23.7812C3.25701 24.0699 3.37383 24.5006 3.37383 25.0635V26.5611H0.733645V25.0586C0.733645 24.4957 0.845794 24.0699 1.07477 23.7812Z" fill="white"/>
<path d="M5.15421 20.2867H3.25701V17.1935H2.54206V20.2867H0.733645V16.8166H0V21.1676H5.88785V16.6894H5.15421V20.2867Z" fill="white"/>
<path d="M0.733645 13.1655V11.0512H0V16.1559H0.733645V14.0416H5.88785V13.1655H0.733645Z" fill="white"/>
<path d="M34.5 28C39.1944 28 43 23.9706 43 19C43 14.0294 39.1944 10 34.5 10C29.8056 10 26 14.0294 26 19C26 23.9706 29.8056 28 34.5 28Z" fill="white"/>
<path d="M34.4347 7.46862C36.4038 7.46862 38.0001 5.79672 38.0001 3.73431C38.0001 1.67191 36.4038 0 34.4347 0C32.4656 0 30.8693 1.67191 30.8693 3.73431C30.8693 5.79672 32.4656 7.46862 34.4347 7.46862Z" fill="white"/>
<path d="M26.2149 10.5667C27.6292 10.5667 28.7756 9.36589 28.7756 7.88463C28.7756 6.40338 27.6292 5.20259 26.2149 5.20259C24.8006 5.20259 23.6541 6.40338 23.6541 7.88463C23.6541 9.36589 24.8006 10.5667 26.2149 10.5667Z" fill="white"/>
<path d="M42.6542 10.5667C44.0685 10.5667 45.2149 9.36589 45.2149 7.88463C45.2149 6.40338 44.0685 5.20259 42.6542 5.20259C41.2399 5.20259 40.0934 6.40338 40.0934 7.88463C40.0934 9.36589 41.2399 10.5667 42.6542 10.5667Z" fill="white"/>
</svg>
