<svg width="20" height="20" viewBox="0 0 20 20" fill="none" xmlns="http://www.w3.org/2000/svg">
<path d="M17.5743 15.9976H16.897C16.8139 15.7137 16.5901 15.4894 16.303 15.404V14.06C16.303 13.9746 16.2356 13.9051 16.1525 13.9051H15.9584C15.8752 13.9051 15.8079 13.9746 15.8079 14.06V15.404C15.4436 15.5112 15.1762 15.8487 15.1762 16.2498C15.1762 16.7342 15.5703 17.1273 16.0554 17.1273C16.4554 17.1273 16.7921 16.8632 16.897 16.4979H17.5743C17.6574 16.4979 17.7248 16.4284 17.7248 16.3431V16.1525C17.7248 16.0671 17.6574 15.9976 17.5743 15.9976Z" fill="#E52472"/>
<path d="M16.1188 12.2156C16.0634 12.2156 16.0099 12.2156 15.9584 12.2196C14.0515 12.297 12.499 13.7542 12.2653 15.6204C12.2455 15.7812 12.2356 15.944 12.2356 16.1088C12.2356 18.2569 13.9743 20 16.1188 20C18.2614 20 20 18.2569 20 16.1088C20 13.9587 18.2614 12.2156 16.1188 12.2156ZM16.1188 19.0689C14.4871 19.0689 13.1663 17.7427 13.1663 16.1088C13.1663 15.942 13.1802 15.7792 13.2059 15.6204C13.4297 14.2684 14.5644 13.2261 15.9584 13.1507C16.0099 13.1487 16.0634 13.1467 16.1188 13.1467C17.7485 13.1467 19.0693 14.4729 19.0693 16.1088C19.0693 17.7427 17.7485 19.0689 16.1188 19.0689Z" fill="#E52472"/>
<path d="M15.8416 10.9748V3.39091C15.8416 3.06333 15.5762 2.79531 15.2475 2.79531H0.594059C0.265347 2.79531 0 3.06333 0 3.39091V14.6675C0 14.997 0.265347 15.2631 0.594059 15.2631H11.0634C11.4495 12.9144 13.4218 11.1038 15.8416 10.9748ZM6.69703 12.7238C6.69703 13.0534 6.4297 13.3194 6.10297 13.3194H2.57426C2.24554 13.3194 1.9802 13.0534 1.9802 12.7238V10.5003C1.9802 10.1707 2.24554 9.90471 2.57426 9.90471H6.10297C6.4297 9.90471 6.69703 10.1707 6.69703 10.5003V12.7238ZM6.69703 7.60175C6.69703 7.92932 6.4297 8.19734 6.10297 8.19734H2.57426C2.24554 8.19734 1.9802 7.92932 1.9802 7.60175V5.37622C1.9802 5.04666 2.24554 4.78062 2.57426 4.78062H6.10297C6.4297 4.78062 6.69703 5.04666 6.69703 5.37622V7.60175ZM9.6495 8.19734C9.32079 8.19734 9.05545 7.92932 9.05545 7.60175V5.37622C9.05545 5.04666 9.32079 4.78062 9.6495 4.78062H13.1782C13.5069 4.78062 13.7723 5.04666 13.7723 5.37622V7.60175C13.7723 7.92932 13.5069 8.19734 13.1782 8.19734H9.6495Z" fill="#E52472"/>
<path d="M2.57426 1.62398H13.1782C13.5069 1.62398 13.7723 1.35795 13.7723 1.02839V0.595593C13.7723 0.266031 13.5069 0 13.1782 0H2.57426C2.24554 0 1.9802 0.266031 1.9802 0.595593V1.02839C1.9802 1.35795 2.24554 1.62398 2.57426 1.62398Z" fill="#E52472"/>
</svg>
