<svg width="21" height="21" viewBox="0 0 21 21" fill="none" xmlns="http://www.w3.org/2000/svg">
<path d="M5.2311 20.5822L10.7988 15.0145L16.3666 20.5822C16.6554 20.871 17.1216 20.871 17.4105 20.5822L20.5822 17.4105C20.871 17.1216 20.871 16.6554 20.5822 16.3666L15.0145 10.7988L20.5822 5.2311C20.871 4.94229 20.871 4.47601 20.5822 4.18719L17.4105 1.01544C17.1216 0.726624 16.6554 0.726624 16.3666 1.01544L10.7988 6.58316L5.2311 1.01544C4.94229 0.726624 4.47601 0.726624 4.18719 1.01544L1.01544 4.18719C0.726625 4.47601 0.726624 4.94229 1.01544 5.2311L6.58316 10.7988L1.01544 16.3666C0.726624 16.6554 0.726625 17.1216 1.01544 17.4105L4.18719 20.5822C4.47601 20.871 4.94403 20.8693 5.2311 20.5822Z" fill="white"/>
</svg>
