<svg width="24" height="24" viewBox="0 0 24 24" fill="none" xmlns="http://www.w3.org/2000/svg">
<path d="M2.27608 16.3098L7.69183 21.7261C7.96865 22.0029 7.96865 22.4525 7.69183 22.7293L6.62714 23.7918C6.49464 23.9243 6.31482 24 6.12555 24H0.712163C0.319409 24 0.00236599 23.6829 0.00236599 23.2901L0 17.8762C0 17.6869 0.0757117 17.5071 0.208207 17.3746L1.2729 16.3098C1.54972 16.0329 1.99926 16.0329 2.27608 16.3098Z" fill="white"/>
<path d="M23.7924 6.62483L10.4529 19.968C10.1761 20.2448 9.72658 20.2448 9.44976 19.968L4.03401 14.5517C3.75719 14.2748 3.75719 13.8252 4.03401 13.5484L17.3758 0.207636C17.6526 -0.069212 18.1022 -0.069212 18.379 0.207636L23.7924 5.62155C24.0692 5.8984 24.0692 6.34798 23.7924 6.62483Z" fill="white"/>
</svg>
