<svg width="46" height="46" viewBox="0 0 46 46" fill="none" xmlns="http://www.w3.org/2000/svg">
<path d="M5.89418 42.6236C12.8654 48.1383 23.2491 46.7523 29.0866 39.5279C34.9242 32.3035 34.0052 21.9765 27.0339 16.4618C20.0626 10.9471 9.67902 12.333 3.84145 19.5574C-1.99612 26.7818 -1.07708 37.1089 5.89418 42.6236Z" fill="white"/>
<path d="M29.4172 13.5126C32.239 15.7448 36.442 15.1838 38.8049 12.2595C41.1678 9.3353 40.7958 5.15517 37.974 2.92296C35.1523 0.69075 30.9492 1.25176 28.5863 4.176C26.2234 7.10025 26.5954 11.2804 29.4172 13.5126Z" fill="white"/>
<path d="M14.0886 8.58724C16.1153 10.1905 19.134 9.78753 20.8311 7.68729C22.5281 5.58704 22.261 2.58479 20.2343 0.981581C18.2076 -0.621631 15.189 -0.218706 13.4919 1.88154C11.7948 3.98178 12.062 6.98403 14.0886 8.58724Z" fill="white"/>
<path d="M37.6464 27.2229C39.6731 28.8261 42.6918 28.4232 44.3888 26.3229C46.0859 24.2227 45.8187 21.2204 43.7921 19.6172C41.7654 18.014 38.7467 18.4169 37.0497 20.5172C35.3526 22.6174 35.6198 25.6197 37.6464 27.2229Z" fill="white"/>
</svg>
