<svg width="18" height="18" viewBox="0 0 18 18" fill="none" xmlns="http://www.w3.org/2000/svg">
<path d="M2.33148 16.6788C5.089 18.8367 9.1963 18.2944 11.5054 15.4674C13.8145 12.6405 13.4509 8.59949 10.6934 6.44156C7.93589 4.28364 3.82859 4.82597 1.51951 7.65291C-0.789578 10.4798 -0.426046 14.5209 2.33148 16.6788Z" fill="#E52472"/>
<path d="M11.6361 5.28754C12.7523 6.16101 14.4149 5.94148 15.3495 4.79721C16.2842 3.65294 16.137 2.01724 15.0208 1.14377C13.9047 0.270293 12.2421 0.489817 11.3075 1.63409C10.3728 2.77836 10.52 4.41406 11.6361 5.28754Z" fill="#E52472"/>
<path d="M5.57284 3.36022C6.3745 3.98757 7.56856 3.8299 8.23985 3.00807C8.91113 2.18623 8.80545 1.01144 8.00379 0.384097C7.20214 -0.243247 6.00808 -0.0855808 5.33679 0.736254C4.6655 1.55809 4.77118 2.73288 5.57284 3.36022Z" fill="#E52472"/>
<path d="M14.8913 10.6524C15.6929 11.2798 16.887 11.1221 17.5583 10.3003C18.2295 9.47844 18.1239 8.30365 17.3222 7.6763C16.5205 7.04896 15.3265 7.20663 14.6552 8.02846C13.9839 8.8503 14.0896 10.0251 14.8913 10.6524Z" fill="#E52472"/>
</svg>
