<svg width="20" height="20" viewBox="0 0 20 20" fill="none" xmlns="http://www.w3.org/2000/svg">
<path d="M12.5713 19.3633V12.5713H19.3633C19.7156 12.5713 20 12.2869 20 11.9346L20 8.06542C20 7.7131 19.7156 7.42869 19.3633 7.42869H12.5713V0.636725C12.5713 0.284404 12.2869 0 11.9346 0H8.06542C7.7131 0 7.42869 0.284404 7.42869 0.636725L7.42869 7.42869H0.636725C0.284404 7.42869 0 7.7131 0 8.06542L1.82112e-07 11.9346C1.82112e-07 12.2869 0.284404 12.5713 0.636725 12.5713H7.42869V19.3633C7.42869 19.7156 7.7131 20 8.06542 20H11.9346C12.2869 20 12.5713 19.7135 12.5713 19.3633Z" fill="white"/>
</svg>
