<svg width="19" height="16" viewBox="0 0 19 16" fill="none" xmlns="http://www.w3.org/2000/svg">
<path d="M18.3145 0H6.11411C5.73478 0 5.42857 0.436838 5.42857 0.977995V1.68867C5.42857 2.22983 5.73478 2.66667 6.11411 2.66667H18.3145C18.6938 2.66667 19 2.22983 19 1.68867V0.977995C19 0.436838 18.6915 0 18.3145 0Z" fill="white"/>
<path d="M17.8996 6.66667H6.52896C5.92008 6.66667 5.42857 7.1035 5.42857 7.64466V8.35534C5.42857 8.8965 5.92008 9.33333 6.52896 9.33333H17.8996C18.5085 9.33333 19 8.8965 19 8.35534V7.64466C19 7.1035 18.5085 6.66667 17.8996 6.66667Z" fill="white"/>
<path d="M17.8996 13.3333H6.52896C5.92008 13.3333 5.42857 13.7702 5.42857 14.3113V15.022C5.42857 15.5632 5.92008 16 6.52896 16H17.8996C18.5085 16 19 15.5632 19 15.022V14.3113C19 13.7702 18.5085 13.3333 17.8996 13.3333Z" fill="white"/>
<path d="M2.03571 6.66667H1.10039C0.491506 6.66667 0 7.1035 0 7.64466V8.35534C0 8.8965 0.491506 9.33333 1.10039 9.33333H2.03571C2.64459 9.33333 3.1361 8.8965 3.1361 8.35534V7.64466C3.1361 7.1035 2.64459 6.66667 2.03571 6.66667Z" fill="white"/>
<path d="M2.03571 13.3333H1.10039C0.491506 13.3333 0 13.7702 0 14.3113V15.022C0 15.5632 0.491506 16 1.10039 16H2.03571C2.64459 16 3.1361 15.5632 3.1361 15.022V14.3113C3.1361 13.7702 2.64459 13.3333 2.03571 13.3333Z" fill="white"/>
<path d="M2.03571 0H1.10039C0.491506 0 0 0.436837 0 0.977995V1.68867C0 2.22983 0.491506 2.66667 1.10039 2.66667H2.03571C2.64459 2.66667 3.1361 2.22983 3.1361 1.68867V0.977995C3.1361 0.436837 2.64459 0 2.03571 0Z" fill="white"/>
</svg>
